<svg xmlns="http://www.w3.org/2000/svg" viewBox="0 0 1800 420" role="img" aria-label="Dreamlike mountain sunset profile cover">
  <defs>
    <linearGradient id="sky" x1="0" x2="1" y1="0" y2="1">
      <stop offset="0" stop-color="#2457d7"/>
      <stop offset=".36" stop-color="#6048d7"/>
      <stop offset=".62" stop-color="#f37aa9"/>
      <stop offset="1" stop-color="#34288a"/>
    </linearGradient>
    <linearGradient id="glow" x1="0" x2="1">
      <stop offset="0" stop-color="#fff4c9" stop-opacity=".12"/>
      <stop offset=".55" stop-color="#fff4c9" stop-opacity=".82"/>
      <stop offset="1" stop-color="#ffffff" stop-opacity="0"/>
    </linearGradient>
    <linearGradient id="mist" x1="0" x2="1">
      <stop offset="0" stop-color="#f8fbff" stop-opacity=".86"/>
      <stop offset=".48" stop-color="#ffffff" stop-opacity=".28"/>
      <stop offset="1" stop-color="#edf4ff" stop-opacity=".7"/>
    </linearGradient>
    <linearGradient id="ridgeA" x1="0" x2="1" y1="0" y2="1">
      <stop offset="0" stop-color="#2733aa"/>
      <stop offset="1" stop-color="#18205e"/>
    </linearGradient>
    <linearGradient id="ridgeB" x1="0" x2="1" y1="0" y2="1">
      <stop offset="0" stop-color="#5f48d8"/>
      <stop offset="1" stop-color="#1b2473"/>
    </linearGradient>
    <radialGradient id="sun" cx="50%" cy="50%" r="50%">
      <stop offset="0" stop-color="#fff9db"/>
      <stop offset=".72" stop-color="#fff1a8"/>
      <stop offset="1" stop-color="#fff1a8" stop-opacity="0"/>
    </radialGradient>
    <filter id="soft">
      <feGaussianBlur stdDeviation="14"/>
    </filter>
  </defs>
  <rect width="1800" height="420" fill="url(#sky)"/>
  <path d="M0 88C214 24 356 76 528 46c178-31 320-78 544 4 169 62 301 26 458 0 118-19 205-9 270 16v354H0z" fill="#ffffff" opacity=".08"/>
  <path d="M258 142c234-53 398-18 546-36 244-30 403-122 694 22 103 51 199 66 302 56v236H258z" fill="url(#glow)" opacity=".78"/>
  <circle cx="1362" cy="104" r="18" fill="url(#sun)"/>
  <circle cx="1362" cy="104" r="8" fill="#fff9db"/>
  <path d="M0 278 116 214l82 38 110-110 92 104 96-66 110 92 78-74 74 64 118-126 124 132 96-80 138 100 78-54 86 62 102-94 82 68 96-86 124 94v152H0z" fill="url(#ridgeB)" opacity=".86"/>
  <path d="M0 325 138 246l118 57 130-86 118 95 110-60 126 86 118-104 132 126 118-78 146 82 98-70 122 62 116-82 112 70 98-42 0 118H0z" fill="url(#ridgeA)" opacity=".98"/>
  <path d="M0 304C196 270 336 310 514 292c174-18 290-78 456-38 114 28 177 79 330 52 205-37 302-73 500-14v128H0z" fill="#e7ecff" opacity=".2"/>
  <path d="M0 344c208-39 368-8 560-17 230-11 362-72 594-26 206 41 370 7 646-17v136H0z" fill="url(#mist)" opacity=".68"/>
  <path d="M0 373c276-18 482 19 716 6 244-14 415-58 657-34 167 17 281 37 427 9v66H0z" fill="#f8fbff" opacity=".54"/>
  <g transform="translate(1382 160)" fill="#091541">
    <ellipse cx="0" cy="113" rx="33" ry="7" opacity=".22"/>
    <rect x="-6" y="24" width="12" height="58" rx="6"/>
    <circle cx="0" cy="12" r="12"/>
    <path d="M-5 38c-19 8-30 24-37 47l9 3c7-19 17-32 31-39z"/>
    <path d="M5 38c18 9 29 25 36 48l-9 3C25 70 15 57 2 49z"/>
    <path d="M-5 79h11l9 58h-12l-5-37-10 37h-12z"/>
  </g>
  <g opacity=".6" fill="#fff7ff" filter="url(#soft)">
    <circle cx="1054" cy="110" r="46"/>
    <circle cx="1468" cy="54" r="34"/>
    <circle cx="486" cy="74" r="28"/>
  </g>
</svg>
